<svg xmlns="http://www.w3.org/2000/svg" xmlns:xlink="http://www.w3.org/1999/xlink" width="500" zoomAndPan="magnify" viewBox="0 0 375 374.999991" height="500" preserveAspectRatio="xMidYMid meet" version="1.0"><defs><clipPath id="e7bc78c7cc"><path d="M 32.265625 32.265625 L 342.765625 32.265625 L 342.765625 342.765625 L 32.265625 342.765625 Z M 32.265625 32.265625 " clip-rule="nonzero"/></clipPath></defs><g clip-path="url(#e7bc78c7cc)"><path fill="#333233" d="M 187.496094 32.265625 C 184.957031 32.265625 182.417969 32.328125 179.878906 32.453125 C 177.34375 32.574219 174.808594 32.761719 172.28125 33.011719 C 169.753906 33.261719 167.234375 33.570312 164.71875 33.945312 C 162.207031 34.316406 159.703125 34.75 157.210938 35.246094 C 154.722656 35.742188 152.242188 36.300781 149.777344 36.917969 C 147.3125 37.535156 144.867188 38.210938 142.433594 38.949219 C 140.003906 39.6875 137.59375 40.484375 135.199219 41.339844 C 132.808594 42.195312 130.4375 43.109375 128.09375 44.082031 C 125.746094 45.054688 123.421875 46.082031 121.125 47.167969 C 118.828125 48.253906 116.5625 49.398438 114.320312 50.59375 C 112.082031 51.792969 109.871094 53.042969 107.691406 54.351562 C 105.511719 55.65625 103.367188 57.015625 101.253906 58.425781 C 99.140625 59.835938 97.066406 61.300781 95.023438 62.8125 C 92.984375 64.328125 90.980469 65.890625 89.019531 67.5 C 87.054688 69.113281 85.132812 70.769531 83.25 72.476562 C 81.367188 74.183594 79.527344 75.933594 77.730469 77.730469 C 75.933594 79.527344 74.183594 81.367188 72.476562 83.25 C 70.769531 85.132812 69.113281 87.054688 67.5 89.019531 C 65.890625 90.980469 64.328125 92.984375 62.8125 95.023438 C 61.300781 97.066406 59.835938 99.140625 58.425781 101.253906 C 57.015625 103.367188 55.65625 105.511719 54.351562 107.691406 C 53.042969 109.871094 51.792969 112.082031 50.59375 114.320312 C 49.398438 116.5625 48.253906 118.828125 47.167969 121.125 C 46.082031 123.421875 45.054688 125.746094 44.082031 128.09375 C 43.109375 130.4375 42.195312 132.808594 41.339844 135.199219 C 40.484375 137.59375 39.6875 140.003906 38.949219 142.433594 C 38.210938 144.867188 37.535156 147.3125 36.917969 149.777344 C 36.300781 152.242188 35.742188 154.722656 35.246094 157.210938 C 34.75 159.703125 34.316406 162.207031 33.945312 164.71875 C 33.570312 167.234375 33.261719 169.753906 33.011719 172.28125 C 32.761719 174.808594 32.574219 177.34375 32.453125 179.878906 C 32.328125 182.417969 32.265625 184.957031 32.265625 187.496094 C 32.265625 190.039062 32.328125 192.578125 32.453125 195.113281 C 32.574219 197.652344 32.761719 200.183594 33.011719 202.710938 C 33.261719 205.242188 33.570312 207.761719 33.945312 210.273438 C 34.316406 212.789062 34.75 215.289062 35.246094 217.78125 C 35.742188 220.273438 36.300781 222.75 36.917969 225.214844 C 37.535156 227.679688 38.210938 230.128906 38.949219 232.558594 C 39.6875 234.988281 40.484375 237.402344 41.339844 239.792969 C 42.195312 242.183594 43.109375 244.554688 44.082031 246.902344 C 45.054688 249.25 46.082031 251.570312 47.167969 253.867188 C 48.253906 256.164062 49.398438 258.433594 50.59375 260.671875 C 51.792969 262.914062 53.042969 265.125 54.351562 267.300781 C 55.65625 269.480469 57.015625 271.628906 58.425781 273.738281 C 59.835938 275.851562 61.300781 277.929688 62.8125 279.96875 C 64.328125 282.007812 65.890625 284.011719 67.5 285.976562 C 69.113281 287.9375 70.769531 289.863281 72.476562 291.746094 C 74.183594 293.628906 75.933594 295.464844 77.730469 297.261719 C 79.527344 299.058594 81.367188 300.808594 83.25 302.515625 C 85.132812 304.222656 87.054688 305.882812 89.019531 307.492188 C 90.980469 309.105469 92.984375 310.667969 95.023438 312.179688 C 97.066406 313.695312 99.140625 315.15625 101.253906 316.566406 C 103.367188 317.980469 105.511719 319.339844 107.691406 320.644531 C 109.871094 321.949219 112.082031 323.203125 114.320312 324.398438 C 116.5625 325.597656 118.828125 326.738281 121.125 327.824219 C 123.421875 328.910156 125.746094 329.941406 128.09375 330.914062 C 130.4375 331.886719 132.808594 332.800781 135.199219 333.65625 C 137.59375 334.511719 140.003906 335.308594 142.433594 336.046875 C 144.867188 336.78125 147.3125 337.460938 149.777344 338.078125 C 152.242188 338.695312 154.722656 339.25 157.210938 339.746094 C 159.703125 340.242188 162.207031 340.675781 164.71875 341.050781 C 167.234375 341.421875 169.753906 341.734375 172.28125 341.980469 C 174.808594 342.230469 177.34375 342.417969 179.878906 342.542969 C 182.417969 342.667969 184.957031 342.730469 187.496094 342.730469 C 190.039062 342.730469 192.578125 342.667969 195.113281 342.542969 C 197.652344 342.417969 200.183594 342.230469 202.710938 341.980469 C 205.242188 341.734375 207.761719 341.421875 210.273438 341.050781 C 212.789062 340.675781 215.289062 340.242188 217.78125 339.746094 C 220.273438 339.25 222.75 338.695312 225.214844 338.078125 C 227.679688 337.460938 230.128906 336.78125 232.558594 336.046875 C 234.988281 335.308594 237.402344 334.511719 239.792969 333.65625 C 242.183594 332.800781 244.554688 331.886719 246.902344 330.914062 C 249.25 329.941406 251.570312 328.910156 253.867188 327.824219 C 256.164062 326.738281 258.433594 325.597656 260.671875 324.398438 C 262.914062 323.203125 265.125 321.949219 267.300781 320.644531 C 269.480469 319.339844 271.628906 317.980469 273.738281 316.566406 C 275.851562 315.15625 277.929688 313.695312 279.96875 312.179688 C 282.007812 310.667969 284.011719 309.105469 285.976562 307.492188 C 287.9375 305.882812 289.863281 304.222656 291.746094 302.515625 C 293.628906 300.808594 295.464844 299.058594 297.261719 297.261719 C 299.058594 295.464844 300.808594 293.628906 302.515625 291.746094 C 304.222656 289.863281 305.882812 287.9375 307.492188 285.976562 C 309.105469 284.011719 310.667969 282.007812 312.179688 279.96875 C 313.695312 277.929688 315.15625 275.851562 316.566406 273.738281 C 317.980469 271.628906 319.339844 269.480469 320.644531 267.300781 C 321.949219 265.125 323.203125 262.914062 324.398438 260.671875 C 325.597656 258.433594 326.738281 256.164062 327.824219 253.867188 C 328.910156 251.570312 329.941406 249.25 330.914062 246.902344 C 331.886719 244.554688 332.800781 242.183594 333.65625 239.792969 C 334.511719 237.402344 335.308594 234.988281 336.046875 232.558594 C 336.78125 230.128906 337.460938 227.679688 338.078125 225.214844 C 338.695312 222.75 339.25 220.273438 339.746094 217.78125 C 340.242188 215.289062 340.675781 212.789062 341.050781 210.273438 C 341.421875 207.761719 341.734375 205.242188 341.980469 202.710938 C 342.230469 200.183594 342.417969 197.652344 342.542969 195.113281 C 342.667969 192.578125 342.730469 190.039062 342.730469 187.496094 C 342.726562 184.957031 342.664062 182.417969 342.535156 179.882812 C 342.410156 177.34375 342.21875 174.8125 341.96875 172.285156 C 341.71875 169.757812 341.40625 167.238281 341.03125 164.726562 C 340.65625 162.214844 340.21875 159.714844 339.722656 157.222656 C 339.226562 154.730469 338.667969 152.253906 338.046875 149.792969 C 337.429688 147.328125 336.75 144.882812 336.011719 142.453125 C 335.273438 140.023438 334.476562 137.613281 333.617188 135.21875 C 332.761719 132.828125 331.847656 130.460938 330.875 128.113281 C 329.902344 125.769531 328.871094 123.449219 327.785156 121.152344 C 326.695312 118.855469 325.554688 116.589844 324.355469 114.351562 C 323.15625 112.109375 321.90625 109.902344 320.597656 107.722656 C 319.292969 105.546875 317.933594 103.402344 316.523438 101.289062 C 315.109375 99.179688 313.648438 97.101562 312.136719 95.0625 C 310.621094 93.023438 309.058594 91.019531 307.449219 89.058594 C 305.835938 87.09375 304.179688 85.171875 302.472656 83.289062 C 300.765625 81.410156 299.015625 79.570312 297.21875 77.773438 C 295.421875 75.976562 293.585938 74.226562 291.703125 72.523438 C 289.820312 70.816406 287.898438 69.15625 285.9375 67.546875 C 283.972656 65.933594 281.972656 64.371094 279.929688 62.859375 C 277.890625 61.34375 275.816406 59.882812 273.703125 58.472656 C 271.59375 57.058594 269.449219 55.699219 267.269531 54.394531 C 265.09375 53.089844 262.882812 51.835938 260.644531 50.636719 C 258.40625 49.441406 256.136719 48.296875 253.839844 47.210938 C 251.546875 46.125 249.226562 45.09375 246.878906 44.121094 C 244.53125 43.148438 242.164062 42.230469 239.773438 41.375 C 237.382812 40.519531 234.972656 39.71875 232.542969 38.980469 C 230.113281 38.242188 227.664062 37.566406 225.203125 36.945312 C 222.738281 36.328125 220.261719 35.769531 217.769531 35.273438 C 215.28125 34.773438 212.777344 34.339844 210.265625 33.964844 C 207.753906 33.589844 205.234375 33.277344 202.707031 33.023438 C 200.179688 32.773438 197.648438 32.585938 195.113281 32.457031 C 192.574219 32.332031 190.035156 32.265625 187.496094 32.265625 Z M 264.816406 194 L 146.546875 256.242188 C 145.460938 256.71875 144.328125 256.964844 143.144531 256.980469 C 141.761719 257.011719 140.480469 256.667969 139.300781 255.945312 C 138.757812 255.617188 138.261719 255.21875 137.820312 254.761719 C 137.378906 254.300781 137 253.792969 136.691406 253.234375 C 136.378906 252.679688 136.144531 252.089844 135.984375 251.472656 C 135.828125 250.855469 135.75 250.226562 135.753906 249.589844 L 135.753906 125.402344 C 135.75 124.765625 135.828125 124.136719 135.984375 123.519531 C 136.144531 122.902344 136.378906 122.316406 136.691406 121.757812 C 137 121.203125 137.378906 120.691406 137.820312 120.234375 C 138.261719 119.773438 138.757812 119.378906 139.300781 119.046875 C 139.855469 118.734375 140.4375 118.5 141.050781 118.339844 C 141.664062 118.179688 142.289062 118.097656 142.921875 118.097656 C 143.558594 118.097656 144.179688 118.179688 144.796875 118.339844 C 145.410156 118.5 145.992188 118.734375 146.546875 119.046875 L 264.816406 181.289062 C 265.425781 181.585938 265.980469 181.960938 266.484375 182.417969 C 266.988281 182.871094 267.417969 183.382812 267.777344 183.960938 C 268.136719 184.535156 268.40625 185.148438 268.59375 185.800781 C 268.78125 186.449219 268.875 187.113281 268.875 187.792969 C 268.875 188.46875 268.78125 189.132812 268.59375 189.785156 C 268.40625 190.4375 268.136719 191.050781 267.777344 191.625 C 267.417969 192.199219 266.988281 192.714844 266.484375 193.167969 C 265.980469 193.625 265.425781 194 264.816406 194.296875 Z M 264.816406 194 " fill-opacity="1" fill-rule="nonzero"/></g></svg>